<?xml version="1.0" encoding="UTF-8" standalone="no"?>
<!-- Created with sK1/UniConvertor (http://sk1project.org/) -->

<svg
   xmlns:dc="http://purl.org/dc/elements/1.1/"
   xmlns:cc="http://creativecommons.org/ns#"
   xmlns:rdf="http://www.w3.org/1999/02/22-rdf-syntax-ns#"
   xmlns:svg="http://www.w3.org/2000/svg"
   xmlns="http://www.w3.org/2000/svg"
   xmlns:xlink="http://www.w3.org/1999/xlink"
   xmlns:sodipodi="http://sodipodi.sourceforge.net/DTD/sodipodi-0.dtd"
   xmlns:inkscape="http://www.inkscape.org/namespaces/inkscape"
   sodipodi:docname="camec_logo_v2.svg"
   inkscape:version="0.48.1 r9760"
   version="1.1"
   id="svg3004"
   fill-rule="evenodd"
   viewBox="0 0 595.276 841.89"
   height="841.89pt"
   width="595.276pt">
  <sodipodi:namedview
     pagecolor="#ffffff"
     bordercolor="#666666"
     borderopacity="1"
     objecttolerance="10"
     gridtolerance="10"
     guidetolerance="10"
     inkscape:pageopacity="0"
     inkscape:pageshadow="2"
     inkscape:window-width="1920"
     inkscape:window-height="1056"
     id="namedview3316"
     showgrid="false"
     inkscape:zoom="1.8061295"
     inkscape:cx="372.72121"
     inkscape:cy="543.39113"
     inkscape:window-x="0"
     inkscape:window-y="24"
     inkscape:window-maximized="1"
     inkscape:current-layer="svg3004" />
  <metadata
     id="metadata3318">
    <rdf:RDF>
      <cc:Work
         rdf:about="">
        <dc:format>image/svg+xml</dc:format>
        <dc:type
           rdf:resource="http://purl.org/dc/dcmitype/StillImage" />
        <dc:title />
      </cc:Work>
    </rdf:RDF>
  </metadata>
  <defs
     id="defs3006">
    <pattern
       inkscape:collect="always"
       xlink:href="#Strips1_1"
       id="pattern5888"
       patternTransform="matrix(10,0,0,10,5.5639644,5.31523)" />
    <pattern
       inkscape:stockid="Stripes 1:1"
       id="Strips1_1"
       patternTransform="translate(0,0) scale(10,10)"
       height="1"
       width="2"
       patternUnits="userSpaceOnUse"
       inkscape:collect="always">
      <rect
         id="rect5158"
         height="2"
         width="1"
         y="-0.5"
         x="0"
         style="fill:black;stroke:none" />
    </pattern>
    <marker
       orient="auto"
       markerHeight="3"
       markerWidth="4"
       markerUnits="strokeWidth"
       refY="5"
       refX="0"
       viewBox="0 0 10 10"
       id="ArrowEnd">
      <path
         id="path3009"
         d="M 0 0 L 10 5 L 0 10 z" />
    </marker>
    <marker
       orient="auto"
       markerHeight="3"
       markerWidth="4"
       markerUnits="strokeWidth"
       refY="5"
       refX="10"
       viewBox="0 0 10 10"
       id="ArrowStart">
      <path
         id="path3012"
         d="M 10 0 L 0 5 L 10 10 z" />
    </marker>
  </defs>
  <path
     style="fill:#ffffff;stroke:#000000;stroke-width:1.60000001999999997;stroke-linecap:butt;stroke-linejoin:miter;stroke-miterlimit:4;stroke-opacity:1;stroke-dasharray:none;fill-opacity:1"
     d="m 390.44822,347.35183 -13.95249,1.10734 -11.95928,1.99322 -10.18753,1.99321 -12.18074,3.76496 -9.52313,3.98642 -9.74459,4.65083 -10.85194,5.09376 -11.07341,4.65084 -5.53669,2.65761 -4.87231,0.88587 -6.64404,1.55028 -87.03695,78.84264 -7.30845,13.95249 -15.50276,22.36827 36.54223,-14.39542 25.19159,-12.594 31.80855,-17.73229 29.19236,-19.93954 17.69674,-13.51327 13.26737,-13.51326 4.8723,-3.76496 6.2011,-5.75817 5.09377,-5.09377 5.53671,-5.75816 6.64404,-8.63726 2.65761,-1.77174 5.97964,-5.75817 4.65083,-4.65083 6.64405,-4.65084 8.41578,-5.09376 z"
     id="path6276"
     inkscape:connector-curvature="0"
     sodipodi:nodetypes="cccccccccccccccccccccccccccccccc" />
  <path
     inkscape:connector-curvature="0"
     style="fill:#020202;stroke:none"
     d="m 16.0386,560.72 48.7491,0 0,-8.644 -36.3024,-0.346 0,-283.899 36.3024,-0.346 0,-8.644 -48.7491,0 0,8.299 0,285.282 0,8.298 z"
     id="path3026" />
  <path
     inkscape:connector-curvature="0"
     style="fill:#020202;stroke:none"
     d="m 530.843,267.485 36.302,0 0.346,0 0,284.245 0,0.346 -36.648,0 0,8.644 49.095,0 0,-301.879 -49.095,0 0,8.644 z"
     id="path3028" />
  <g
     id="g3250"
     style="stroke:#000000;stroke-opacity:1">
    <path
       id="path3252"
       d="m 441.532,417.923 -0.214,1.284 -0.214,0.641 -0.214,0.642 -0.214,0.427 -0.213,0.428 -0.214,0.428 -0.214,0.427 -0.214,0.214 0,0.428 0.214,0.214 0.214,0.214 0.214,0.213 0.213,0.214 0.214,0.214 0.214,0.214 0.214,0.214 0.214,0.428 0.214,0.214 0.214,0.213 0.213,0.214 0.214,0.214 0.214,0.214 0.214,0.214 0.214,0.213 0.214,0.214 0.213,0.214 0.214,0.214 0.214,0.214 0.214,0.214 0.214,0.214 0.214,0.214 0.214,0.213 0.213,0.214 0.214,0.428 0.214,0.214 0.214,0.214 0.428,0 0.427,-0.214 0.428,-0.214 0.214,-0.214 0.428,-0.214 0.427,-0.214 0.214,-0.213 0.428,-0.214 0.214,-0.214 0.427,-0.214 0.214,-0.214 0.214,-0.214 0.428,-0.214 0.214,-0.214 0.427,-0.213 0.214,-0.214 0.428,-0.214 0.214,-0.214 0.214,-0.214 0.213,-0.213 0.428,-0.214 0.214,-0.214 0.214,-0.214 0.428,-0.214 0.214,-0.214 0.213,-0.214 0.214,-0.214 0.214,-0.213 0.214,-0.214 0.428,-0.214 0.213,-0.214 0.214,-0.214 0.214,-0.214 0.428,-0.213 0.214,-0.214 0.214,-0.214 0.213,-0.214 0.214,-0.214 0.214,-0.214 0.214,-0.214 0.214,-0.213 0.427,-0.428 0,-0.428 -0.213,-0.214 -0.214,-0.428 -0.214,-0.641 -0.214,-0.214 -0.214,-0.428 -14.969,0 -0.214,0.214 z"
       style="fill:#cccccc;stroke:#000000;stroke-opacity:1"
       inkscape:connector-curvature="0" />
    <path
       id="path3254"
       d="m 430.411,390.123 -1.069,0.214 -0.641,0.213 -0.856,0.214 -0.427,0.214 -0.642,0.214 -0.428,0.214 -0.428,0.213 -0.427,0.214 -0.428,0.214 0,1.07 0.214,0.427 0.214,0.642 0.214,0.427 0.213,0.642 0.215,0.642 0.213,0.427 0.214,0.642 0.214,0.428 0.214,0.641 0.214,0.428 0.214,0.641 0.213,0.642 0.214,0.427 0.214,0.642 0.214,0.428 0.214,0.641 0.214,0.642 0.213,0.428 0.214,0.641 0.214,0.428 0.214,0.641 0.214,0.642 0.214,0.428 0.214,0.641 0.213,0.428 0.214,0.642 0.214,0.641 0.214,0.428 0.214,0.641 0.214,0.642 0.641,0 1.497,-0.214 0,-19.46 -0.214,-0.214 -1.71,0 -1.284,0.214 z"
       style="fill:#cccccc;stroke:#000000;stroke-opacity:1"
       inkscape:connector-curvature="0" />
    <path
       id="path3256"
       d="m 434.689,390.123 0,19.46 1.283,0.214 0.641,0 0.214,-0.214 0.214,-0.428 0.214,-0.427 0.214,-0.642 0.213,-0.428 0.214,-0.641 0.214,-0.428 0.214,-0.641 0.214,-0.428 0.214,-0.642 0.213,-0.427 0.214,-0.642 0.214,-0.428 0.214,-0.641 0.214,-0.642 0.214,-0.427 0.214,-0.428 0.214,-0.642 0.213,-0.641 0.214,-0.428 0.214,-0.428 0.214,-0.641 0.214,-0.642 0.214,-0.427 0.214,-0.642 0.213,-0.428 0.214,-0.641 0.214,-0.642 0.214,-0.428 0,-0.213 -0.214,-0.214 -0.214,-0.214 -0.214,-0.214 -0.213,-0.428 -0.214,-0.427 -0.214,-0.642 -0.214,-1.497 -0.428,-0.214 -0.855,-0.213 -1.283,-0.214 -1.07,-0.214 -2.78,0 -0.213,0.214 z"
       style="fill:#cccccc;stroke:#000000;stroke-opacity:1"
       inkscape:connector-curvature="0" />
    <path
       id="path3258"
       d="m 423.355,392.903 -0.428,0.214 -0.428,0.213 -0.214,0.214 -0.428,0.214 -0.213,0.214 -0.214,0.214 -0.428,0.214 -0.214,0.213 -0.214,0.214 -0.427,0.214 -0.214,0.214 -0.214,0.214 -0.214,0.214 -0.214,0.214 -0.214,0.213 -0.213,0.214 -0.214,0.214 -0.214,0.214 -0.214,0.214 -0.214,0.214 -0.214,0.214 -0.214,0.214 -0.214,0.213 -0.213,0.214 -0.214,0.214 0,0.214 0.214,0.428 0.213,0.213 0.214,0.214 0.214,0.214 0.214,0.214 0.214,0.214 0.214,0.213 0.214,0.215 0.214,0.213 0.213,0.214 0.214,0.214 0.214,0.214 0.214,0.214 0.214,0.427 0.427,0.428 0.214,0.214 0.214,0.214 0.214,0.214 0.214,0.214 0.214,0.213 0.214,0.214 0.213,0.214 0.214,0.214 0.214,0.214 0.214,0.214 0.214,0.213 0.214,0.214 0.214,0.214 0.214,0.214 0.213,0.214 0.214,0.214 0.214,0.428 0.214,0.213 0.428,0.428 0.213,0.214 0.214,0.214 0.214,0.214 0.214,0.213 0.214,0.214 0.213,0.214 0.215,0.214 0.213,0.214 0.214,0.214 0.214,0.214 0.214,0.213 0.214,0.214 0.214,0.214 0.213,0.214 0.214,0.214 0.214,0.427 0.214,0.215 0.214,0.213 0.214,0.214 0.213,0.214 0.428,0 0.428,-0.214 0.214,-0.214 0.427,-0.213 0.428,-0.215 0,-0.641 -0.214,-0.642 -0.214,-0.641 -0.213,-0.428 -0.214,-0.641 -0.214,-0.642 -0.214,-0.428 -0.214,-0.641 -0.214,-0.428 -0.214,-0.642 -0.213,-0.427 -0.214,-0.642 -0.214,-0.641 -0.214,-0.428 -0.214,-0.642 -0.214,-0.641 -0.213,-0.428 -0.214,-0.642 -0.214,-0.427 -0.214,-0.642 -0.214,-0.427 -0.214,-0.642 -0.213,-0.641 -0.215,-0.428 -0.213,-0.642 -0.214,-0.427 -0.214,-0.642 -0.214,-0.642 -0.214,-0.427 -0.213,-0.642 -0.214,-0.427 -0.214,-0.214 -0.214,-0.214 -0.214,0 -0.427,0.214 z"
       style="fill:#cccccc;stroke:#000000;stroke-opacity:1"
       inkscape:connector-curvature="0" />
    <path
       id="path3260"
       d="m 428.701,423.697 -0.214,0.214 -0.214,0.214 -0.214,0.214 -0.214,0.214 -0.214,0.214 -0.213,0.214 -0.214,0.213 -0.214,0.214 -0.214,0.214 -0.214,0.214 -0.214,0.214 -0.213,0.213 -0.215,0.214 -0.213,0.428 -0.214,0.214 -0.214,0.214 -0.214,0.214 -0.214,0.214 -0.213,0.213 -0.214,0.214 -0.214,0.214 -0.214,0.214 -0.214,0.214 -0.214,0.214 -0.213,0.213 -0.214,0.214 -0.214,0.214 -0.214,0.214 -0.214,0.214 0,0.428 0.214,0.213 0.428,0.214 0.214,0.214 0.427,0.214 0.642,0.214 0.427,0.214 0.428,0.214 0.641,0.214 0.642,0.213 0.856,0.214 0.641,0.214 1.069,0.214 1.283,0.214 5.347,0 1.069,-0.214 0.214,-1.497 0.214,-0.642 0.214,-0.427 0.213,-0.214 0.214,-0.214 0.428,-0.214 0,-0.855 -0.214,-0.428 -0.214,-0.642 -0.214,-0.641 -0.213,-0.428 -0.214,-0.642 -0.214,-0.427 -0.214,-0.428 -0.214,-0.214 -0.214,-0.213 -0.641,0 -0.856,0.213 -1.502,0.036 -0.85,-0.249 -0.641,-0.214 -0.642,-0.214 -0.428,-0.214 -0.428,-0.214 -0.213,-0.214 -0.428,-0.214 -0.214,-0.214 -0.642,0 -0.213,0.214 z"
       style="fill:#cccccc;stroke:#000000;stroke-opacity:1"
       inkscape:connector-curvature="0" />
    <path
       id="path3262"
       d="m 446.236,393.972 -0.213,0.214 -0.642,0.214 -0.641,0.213 -0.856,0 -0.214,0 -0.214,0.214 -0.213,0.428 -0.214,0.428 -0.214,0.427 -0.214,0.642 -0.214,0.642 -0.214,0.427 -0.213,0.642 -0.214,0.428 -0.214,0.427 -0.214,0.642 -0.214,0.641 -0.214,0.428 -0.214,0.428 -0.213,0.641 -0.214,0.642 -0.214,0.428 -0.214,0.641 -0.214,0.642 -0.214,0.427 -0.214,0.428 -0.214,0.642 -0.213,0.641 -0.214,0.428 -0.214,0.428 -0.214,0.641 -0.214,0.642 -0.214,0.427 -0.213,0.642 0,0.641 0.427,0.215 0.428,0.213 0.214,0.214 0.214,0.214 0.641,0 0.214,-0.214 0.428,-0.427 0.214,-0.215 0.427,-0.427 0.214,-0.214 0.214,-0.428 0.214,-0.214 0.214,-0.213 0.214,-0.214 0.214,-0.214 0.213,-0.214 0.214,-0.214 0.214,-0.214 0.214,-0.214 0.214,-0.213 0.214,-0.214 0.213,-0.214 0.214,-0.214 0.214,-0.214 0.214,-0.214 0.214,-0.213 0.214,-0.214 0.214,-0.428 0.213,-0.214 0.214,-0.214 0.214,-0.214 0.214,-0.214 0.214,-0.213 0.214,-0.214 0.213,-0.214 0.214,-0.214 0.214,-0.214 0.214,-0.214 0.214,-0.213 0.214,-0.214 0.214,-0.214 0.214,-0.214 0.213,-0.214 0.214,-0.214 0.214,-0.427 0.214,-0.214 0.214,-0.214 0.214,-0.214 0.213,-0.214 0.214,-0.214 0.214,-0.213 0.214,-0.215 0.214,-0.213 0.214,-0.214 0.214,-0.214 0.213,-0.214 0.214,-0.214 0.214,-0.213 0.214,-0.214 0,-0.642 -0.214,-0.214 -0.214,-0.213 -0.214,-0.214 -0.213,-0.428 -0.214,-0.214 -0.214,-0.214 -0.214,-0.214 -0.214,-0.214 -0.214,-0.213 -0.214,-0.214 -0.213,-0.214 -0.214,-0.214 -0.214,-0.214 -0.214,-0.214 -0.214,-0.214 -0.214,-0.213 -0.427,-0.214 -0.214,-0.214 -0.214,-0.214 -0.214,-0.214 -0.428,0 -0.214,0.428 z"
       style="fill:#cccccc;stroke:#000000;stroke-opacity:1"
       inkscape:connector-curvature="0" />
    <path
       id="path3264"
       d="m 415.87,399.532 -0.214,0.214 -0.214,0.427 -0.214,0.215 -0.214,0.427 -0.214,0.214 -0.214,0.428 -0.213,0.214 -0.214,0.427 -0.214,0.428 -0.214,0.428 -0.214,0.427 -0.214,0.428 -0.213,0.428 -0.214,0.427 -0.214,0.642 -0.214,0.428 -0.214,0.641 -0.214,0.214 0,0.428 0.214,0.214 0.428,0.214 0.428,0.213 0.427,0.214 0.428,0.214 0.428,0.214 0.641,0.214 0.428,0.214 0.428,0.214 0.641,0.213 0.428,0.214 0.641,0.214 0.428,0.214 0.428,0.214 0.428,0.214 0.641,0.213 0.428,0.215 0.427,0.213 0.428,0.214 0.428,0.214 0.428,0.214 0.641,0.214 0.428,0.214 0.428,0.213 0.641,0.214 0.428,0.214 0.428,0.214 0.641,0.214 0.428,0.214 0.428,0.213 0.641,0.214 0.214,0.214 0.428,0 0.213,-0.214 0.214,-0.427 0.214,-0.214 0.214,-0.428 0.214,-0.214 0,-0.427 -0.214,-0.214 -0.214,-0.214 -0.214,-0.214 -0.214,-0.214 -0.213,-0.427 -0.214,-0.215 -0.214,-0.213 -0.214,-0.214 -0.214,-0.214 -0.214,-0.214 -0.213,-0.214 -0.215,-0.214 -0.213,-0.213 -0.214,-0.214 -0.214,-0.214 -0.214,-0.214 -0.214,-0.214 -0.213,-0.214 -0.214,-0.214 -0.214,-0.213 -0.214,-0.428 -0.214,-0.214 -0.214,-0.214 -0.213,-0.214 -0.214,-0.213 -0.214,-0.214 -0.214,-0.214 -0.214,-0.214 -0.214,-0.214 -0.214,-0.214 -0.214,-0.214 -0.213,-0.214 -0.214,-0.213 -0.214,-0.214 -0.214,-0.214 -0.214,-0.428 -0.214,-0.214 -0.214,-0.213 -0.213,-0.214 -0.214,-0.214 -0.214,-0.214 -0.214,-0.214 -0.214,-0.214 -0.214,-0.214 -0.213,-0.213 -0.214,-0.214 -0.214,-0.214 -0.214,-0.214 -0.214,-0.214 -0.214,-0.214 -0.214,-0.213 -0.214,-0.215 -0.213,-0.213 -0.214,-0.214 -0.214,-0.214 -0.214,-0.214 -0.428,0 -0.213,0.214 z"
       style="fill:#cccccc;stroke:#000000;stroke-opacity:1"
       inkscape:connector-curvature="0" />
    <path
       id="path3266"
       d="m 451.369,399.532 -0.214,0.214 -0.214,0.214 -0.214,0.213 -0.213,0.428 -0.214,0.214 -0.214,0.214 -0.214,0.214 -0.214,0.214 -0.214,0.214 -0.214,0.213 -0.213,0.214 -0.214,0.214 -0.214,0.214 -0.214,0.214 -0.214,0.214 -0.214,0.214 -0.213,0.213 -0.214,0.214 -0.214,0.214 -0.214,0.428 -0.214,0.214 -0.214,0.213 -0.214,0.214 -0.214,0.214 -0.213,0.214 -0.214,0.214 -0.214,0.214 -0.214,0.214 -0.214,0.214 -0.214,0.213 -0.213,0.214 -0.214,0.214 -0.214,0.214 -0.214,0.214 -0.214,0.427 -0.214,0.214 -0.214,0.214 -0.213,0.214 -0.214,0.214 -0.214,0.214 -0.214,0.214 -0.214,0.213 -0.214,0.214 -0.213,0.214 -0.214,0.214 -0.214,0.214 -0.214,0.214 -0.214,0.213 -0.214,0.215 -0.214,0.213 -0.213,0.428 -0.214,0.214 -0.214,0.214 -0.214,0.214 0,0.427 0.214,0.214 0.214,0.428 0.214,0.214 0.213,0.641 0.642,0 0.428,-0.214 0.641,-0.214 0.428,-0.213 0.428,-0.214 0.641,-0.214 0.428,-0.214 0.428,-0.214 0.641,-0.214 0.428,-0.213 0.641,-0.214 0.428,-0.214 0.428,-0.214 0.428,-0.214 0.427,-0.214 0.642,-0.213 0.427,-0.215 0.428,-0.213 0.428,-0.214 0.641,-0.214 0.428,-0.214 0.428,-0.214 0.641,-0.214 0.428,-0.213 0.642,-0.214 0.427,-0.214 0.428,-0.214 0.642,-0.214 0.427,-0.214 0.642,-0.214 0,-0.855 -0.214,-0.428 -0.214,-0.641 -0.214,-0.642 -0.214,-0.214 -0.213,-0.427 -0.214,-0.642 -0.214,-0.428 -0.214,-0.427 -0.214,-0.428 -0.214,-0.428 -0.213,-0.427 -0.214,-0.428 -0.214,-0.428 -0.214,-0.214 -0.214,-0.428 -0.214,-0.427 -0.214,-0.214 -0.214,-0.214 -0.427,0 -0.214,0.214 z"
       style="fill:#cccccc;stroke:#000000;stroke-opacity:1"
       inkscape:connector-curvature="0" />
    <path
       id="path3268"
       d="m 454.791,408.728 -0.428,0.214 -0.428,0.213 -0.641,0.214 -0.428,0.214 -0.642,0.214 -0.427,0.214 -0.428,0.214 -0.428,0.213 -0.427,0.215 -0.642,0.213 -0.428,0.214 -0.641,0.214 -0.428,0.214 -0.428,0.214 -0.427,0.214 -0.428,0.213 -0.642,0.214 -0.427,0.214 -0.642,0.214 -0.428,0.214 -0.427,0.214 -0.642,0.213 -0.428,0.214 -0.427,0.214 -0.428,0.214 -0.641,0.214 -0.428,0.214 -0.214,0.214 0,0.641 0.214,1.497 15.183,0 0.214,-0.214 0.214,-0.214 0.214,-0.641 0.214,-0.428 0.213,-0.214 0.428,-0.214 0,-1.283 -0.213,-0.855 -0.215,-0.642 -0.213,-0.641 -0.214,-0.642 -0.214,-0.641 -0.214,-0.642 -0.214,-0.428 -0.214,-0.641 -1.069,0 -0.641,0.214 z"
       style="fill:#cccccc;stroke:#000000;stroke-opacity:1"
       inkscape:connector-curvature="0" />
    <path
       id="path3270"
       d="m 411.806,408.3 -0.214,2.353 0,2.138 0.214,2.78 0.214,1.283 14.756,0 0.214,-1.283 0,-0.855 -0.214,-0.214 -0.428,-0.214 -0.428,-0.214 -0.427,-0.214 -0.428,-0.214 -0.427,-0.214 -0.642,-0.213 -0.428,-0.214 -0.641,-0.214 -0.428,-0.214 -0.428,-0.214 -0.427,-0.214 -0.642,-0.213 -0.428,-0.214 -0.427,-0.214 -0.428,-0.214 -0.428,-0.214 -0.641,-0.214 -0.428,-0.213 -0.428,-0.215 -0.428,-0.213 -0.641,-0.214 -0.428,-0.214 -0.427,-0.214 -0.428,-0.214 -0.642,-0.214 -0.427,-0.213 -0.642,-0.214 -0.428,-0.214 -0.427,-0.214 -0.428,-0.214 -0.428,0 -0.214,0.214 z"
       style="fill:#cccccc;stroke:#000000;stroke-opacity:1"
       inkscape:connector-curvature="0" />
    <path
       id="path3272"
       d="m 412.448,417.923 0,0.428 0.214,0.641 0.214,0.428 0.214,0.428 0.213,0.642 0.214,0.427 0.214,0.428 0.214,0.428 0.214,0.427 0.214,0.428 0.213,0.214 0.214,0.428 0.214,0.427 0.214,0.428 0.214,0.428 0.214,0.428 0.214,0 0.427,-0.214 0.642,-0.214 0.427,-0.214 0.428,-0.214 0.428,-0.214 0.428,-0.214 0.427,-0.214 0.642,-0.213 0.428,-0.214 0.427,-0.214 0.642,-0.214 0.428,-0.214 0.641,-0.214 0.428,-0.213 0.428,-0.214 0.427,-0.214 0.642,-0.214 0.428,-0.214 0.427,-0.214 0.642,-0.214 0.428,-0.213 0.427,-0.214 0.428,-0.214 0,-1.07 -0.214,-0.855 -0.214,-0.214 -0.214,-0.214 -13.686,0 -0.214,0.214 z"
       style="fill:#cccccc;stroke:#000000;stroke-opacity:1"
       inkscape:connector-curvature="0" />
    <path
       id="path3274"
       d="m 426.348,421.131 -0.641,0.214 -0.428,0.214 -0.428,0.214 -0.427,0.214 -0.642,0.213 -0.427,0.214 -0.642,0.214 -0.428,0.214 -0.428,0.214 -0.641,0.214 -0.428,0.213 -0.428,0.214 -0.641,0.214 -0.428,0.214 -0.427,0.214 -0.428,0.214 -0.428,0.214 -0.642,0.214 -0.427,0.213 -0.214,0.214 0,0.642 0.214,0.213 0.214,0.214 0.213,0.214 0.214,0.214 0.214,0.214 0.214,0.214 0.214,0.214 0.428,0.214 0.214,0.213 0.213,0.214 0.214,0.214 0.214,0.214 0.428,0.214 0.214,0.214 0.213,0.213 0.428,0.214 0.214,0.214 0.214,0.214 0.641,0 0.214,-0.214 0.214,-0.214 0.214,-0.214 0.214,-0.213 0.214,-0.214 0.214,-0.428 0.214,-0.214 0.213,-0.214 0.214,-0.213 0.214,-0.214 0.214,-0.214 0.214,-0.214 0.214,-0.214 0.213,-0.214 0.214,-0.214 0.214,-0.214 0.214,-0.213 0.214,-0.214 0.213,-0.214 0.215,-0.214 0.213,-0.214 0.214,-0.213 0.214,-0.428 0.214,-0.214 0.214,-0.214 0.214,-0.214 0.213,-0.214 0.214,-0.214 0.214,-0.213 0.214,-0.214 0.214,-0.214 0,-0.428 -0.214,-0.427 -0.214,-0.214 -0.214,-0.428 -0.214,-0.214 -0.213,-0.214 -0.642,0 -0.428,0.214 z"
       style="fill:#cccccc;stroke:#000000;stroke-opacity:1"
       inkscape:connector-curvature="0" />
    <path
       id="path3276"
       d="m 445.167,449.573 1.925,0 0.107,-1.924 0.107,0 0.214,0.214 0.214,0.427 0.213,0.428 0.214,0.214 0.214,0.428 0.214,0.213 2.138,0 0.214,-0.213 0.214,-0.428 0.214,-0.428 0.214,-0.214 0.214,-0.427 0.213,0 0,1.71 1.711,0 0.214,-0.213 0,-5.561 -0.214,-0.213 -1.924,0 -0.214,0.427 -0.214,0.428 -0.214,0.428 -0.214,0.213 -0.214,0.428 -0.213,0.428 -0.214,0.428 -0.214,0.214 -0.214,0.427 -0.428,0.214 -0.214,-0.428 -0.213,-0.427 -0.214,-0.428 -0.214,-0.214 -0.214,-0.427 -0.214,-0.215 -0.214,-0.427 -0.213,-0.428 -0.214,-0.214 -0.214,-0.427 -2.139,0 0,5.987 z"
       style="fill:#cccccc;stroke:#000000;stroke-opacity:1"
       inkscape:connector-curvature="0" />
    <path
       id="path3278"
       d="m 419.505,443.799 0,0.214 0.214,0.428 0,5.132 1.925,0 0.213,-0.427 0.003,-1.924 0.211,-0.215 0.214,0.214 0.214,0.214 0.214,0.214 0.214,0.427 0.214,0.214 0.214,0.214 0.213,0.214 0.214,0.428 0.214,0.214 0.214,0.213 2.566,0 0.214,-0.213 0,-5.347 -0.214,-0.214 -0.428,-0.213 -1.497,0 -0.213,2.78 -0.214,-0.214 -0.214,-0.214 -0.214,-0.214 -0.214,-0.427 -0.214,-0.215 -0.213,-0.213 -0.214,-0.428 -0.214,-0.214 -0.214,-0.214 -0.214,-0.214 -0.642,-0.213 -2.138,0 -0.214,0.213 z"
       style="fill:#cccccc;stroke:#000000;stroke-opacity:1"
       inkscape:connector-curvature="0" />
    <path
       id="path3280"
       d="m 458.854,446.152 -0.428,0.214 -0.427,0 -1.284,0 0,-0.856 1.497,0 0.446,-0.044 0.41,0.258 0,0.214 -0.214,0.214 z m -4.277,-2.566 0,0.427 0.214,0.428 0,5.132 1.71,0 0.214,-0.213 0,-1.07 3.422,0 0.214,-0.214 0.213,-0.213 0.215,-0.214 0.213,-0.428 0,-2.78 -0.213,-0.214 -0.215,-0.214 -0.213,-0.214 -0.214,-0.213 -0.428,-0.214 -0.427,0 -0.428,0.214 -4.277,0 z"
       style="fill:#cccccc;stroke:#000000;stroke-opacity:1"
       inkscape:connector-curvature="0" />
    <path
       id="path3282"
       d="m 431.267,443.799 -0.214,0.214 -0.214,0.428 -0.214,0.214 0,3.635 0.214,0.428 0.214,0.428 0.428,0.214 0.214,0.213 4.063,0 0.427,-0.213 0.214,-0.214 0.214,-0.214 0.214,-0.428 0,-1.069 -0.214,-0.214 -0.214,-0.214 -1.497,0 -0.213,0.214 0,0.214 -0.214,0.214 -0.428,0 -0.428,0 -0.446,0.044 -0.409,-0.258 -0.214,-0.428 0,-0.427 -0.044,-0.447 0.258,-0.409 0.428,-0.214 0.427,0 1.283,0 0,0.642 1.711,0 0.214,-0.214 0,-1.283 -0.214,-0.428 -0.214,-0.214 -0.427,-0.427 -4.277,0 -0.428,0.213 z"
       style="fill:#cccccc;stroke:#000000;stroke-opacity:1"
       inkscape:connector-curvature="0" />
    <path
       id="path3284"
       d="m 412.02,443.799 0,4.491 0.214,0.642 0.214,0.214 0.214,0.214 0.214,0.213 5.132,0 0.428,-0.213 0.214,-0.214 0.214,-0.214 0.213,-0.214 0,-4.919 -0.213,-0.213 -1.498,0 -0.213,0.213 0.044,3.227 -0.258,0.409 -0.428,0.214 -0.428,0 -1.069,0 -0.446,0.044 -0.409,-0.258 -0.214,-0.428 0,-2.994 -0.214,-0.427 -1.497,0 -0.214,0.213 z"
       style="fill:#cccccc;stroke:#000000;stroke-opacity:1"
       inkscape:connector-curvature="0" />
    <path
       id="path3286"
       d="m 440.676,446.366 0,-0.428 0.428,0 0,0.428 0.214,0.427 -0.888,-0.01 0.246,-0.417 z m -1.283,-2.567 -0.214,0.428 0.038,0.47 -0.252,0.172 0.038,0.469 -0.251,0.172 -0.214,0.428 0.037,0.469 -0.251,0.173 -0.214,0.427 0.038,0.47 -0.252,0.172 -0.214,0.427 0.038,0.47 -0.251,0.172 -0.214,0.428 0,0.427 1.924,0 0.214,-0.213 0.214,-0.428 0.428,-0.214 0.428,0 1.71,0 0,0.428 0.214,0.427 1.925,0 0.214,-0.427 0,-0.214 -0.214,-0.428 -0.214,-0.428 -0.229,-0.195 0.015,-0.446 -0.214,-0.428 -0.229,-0.195 0.015,-0.446 -0.213,-0.428 -0.23,-0.196 0.016,-0.445 -0.214,-0.428 -0.23,-0.196 0.016,-0.446 -0.214,-0.214 -0.214,-0.214 -0.427,-0.213 -2.139,0 -0.214,0.213 z"
       style="fill:#cccccc;stroke:#000000;stroke-opacity:1"
       inkscape:connector-curvature="0" />
    <path
       id="path3288"
       d="m 438.538,423.697 -0.428,0.214 -0.214,0.214 -0.427,0.214 0,0.855 0.213,0.642 0.214,0.641 0.214,0.428 0.214,0.642 0.214,0.427 0.214,0.642 0.213,0.641 1.302,-0.044 0.409,0.258 0.428,0.214 0.428,0.214 0.214,0.214 0.214,0.214 0.213,0.214 0.214,0.213 0.642,0 0.427,-0.213 0.428,-0.214 0.214,-0.214 0.428,-0.214 0.427,-0.214 0,-0.428 -0.213,-0.213 -0.214,-0.214 -0.214,-0.214 -0.214,-0.214 -0.214,-0.214 -0.214,-0.214 -0.214,-0.213 -0.213,-0.214 -0.214,-0.214 -0.214,-0.214 -0.214,-0.428 -0.214,-0.214 -0.214,-0.214 -0.213,-0.213 -0.214,-0.214 -0.214,-0.214 -0.214,-0.214 -0.214,-0.214 -0.214,-0.213 -0.214,-0.214 -0.213,-0.214 -0.214,-0.214 -0.214,-0.214 -0.214,-0.214 -0.214,-0.214 -0.214,-0.214 -0.641,0 -0.214,0.214 z"
       style="fill:#cccccc;stroke:#000000;stroke-opacity:1"
       inkscape:connector-curvature="0" />
    <path
       id="path3290"
       d="m 438.965,430.113 -0.427,0.214 -0.214,0.214 -0.214,0.213 -0.214,0.428 -0.214,0.428 0,1.497 0.214,0.428 0.214,0.427 0.214,0.214 0.214,0.214 0.427,0.214 0.428,0.213 1.07,0 0.427,-0.213 0.428,-0.214 0.214,-0.214 0.214,-0.214 0.214,-0.214 0.213,-0.213 0.214,-0.642 0,-1.069 -0.214,-0.428 -0.213,-0.214 -0.214,-0.428 -0.214,-0.213 -0.214,-0.214 -0.428,-0.214 -0.641,-0.214 -0.642,0 -0.642,0.214 z"
       style="fill:#cccccc;stroke:#000000;stroke-opacity:1"
       inkscape:connector-curvature="0" />
    <path
       id="path3292"
       d="m 459.282,414.716 -0.428,0.213 -0.214,0.214 -0.214,0.214 -0.214,0.428 -0.213,0.214 0,1.924 0.213,0.428 0.214,0.214 0.214,0.214 0.214,0.213 0.214,0.215 0.469,-0.038 0.172,0.251 1.07,0 0.427,-0.213 0.428,-0.215 0.214,-0.213 0.214,-0.214 0.213,-0.214 0.214,-0.214 -0.037,-0.469 0.251,-0.172 0,-1.07 -0.214,-0.427 -0.214,-0.214 -0.213,-0.428 -0.214,-0.214 -0.214,-0.214 -0.428,-0.213 -0.469,0.037 -0.173,-0.251 -0.641,0 -0.195,0.229 -0.446,-0.015 z"
       style="fill:#cccccc;stroke:#000000;stroke-opacity:1"
       inkscape:connector-curvature="0" />
    <path
       id="path3294"
       d="m 442.815,389.695 -0.214,0.428 -0.214,0.214 -0.214,0.213 -0.213,0.428 0,1.283 0.213,0.642 0.214,0.214 0.214,0.213 0.214,0.214 0.214,0.214 0.214,0.214 0.446,-0.044 0.409,0.258 0.642,0 0.427,-0.214 0.214,-0.214 0.214,-0.214 0.428,-0.214 0.213,-0.213 0.214,-0.428 0.214,-0.642 0,-0.855 -0.214,-0.642 -0.214,-0.213 -0.213,-0.214 -0.214,-0.428 -0.214,-0.214 -2.566,0 -0.214,0.214 z"
       style="fill:#cccccc;stroke:#000000;stroke-opacity:1"
       inkscape:connector-curvature="0" />
    <path
       id="path3296"
       d="m 427.631,444.013 0.214,0.428 0,5.132 1.711,0 0.214,-0.427 0,-5.347 -0.214,-0.213 -1.925,0 0,0.427 z"
       style="fill:#cccccc;stroke:#000000;stroke-opacity:1"
       inkscape:connector-curvature="0" />
    <path
       id="path3298"
       d="m 437.041,432.893 0.214,0 0,-1.069 -0.214,0 0,1.069 z"
       style="fill:#cccccc;stroke:#000000;stroke-opacity:1"
       inkscape:connector-curvature="0" />
    <path
       id="path3300"
       d="m 437.255,433.535 0.214,0 0,-0.428 -0.214,0 0,0.428 z"
       style="fill:#cccccc;stroke:#000000;stroke-opacity:1"
       inkscape:connector-curvature="0" />
    <path
       id="path3302"
       d="m 437.682,431.182 0,-0.214 -0.213,0 0,0.214 0.213,0 z"
       style="fill:#cccccc;stroke:#000000;stroke-opacity:1"
       inkscape:connector-curvature="0" />
    <path
       id="path3304"
       d="m 437.469,431.61 0,-0.214 -0.214,0 0,0.214 0.214,0 z"
       style="fill:#cccccc;stroke:#000000;stroke-opacity:1"
       inkscape:connector-curvature="0" />
    <path
       id="path3306"
       d="m 437.682,433.748 0,-0.213 -0.213,0 0,0.213 0.213,0 z"
       style="fill:#cccccc;stroke:#000000;stroke-opacity:1"
       inkscape:connector-curvature="0" />
    <path
       id="path3308"
       d="m 438.538,430.327 0,-0.214 -0.214,0 0,0.214 0.214,0 z"
       style="fill:#cccccc;stroke:#000000;stroke-opacity:1"
       inkscape:connector-curvature="0" />
    <path
       id="path3310"
       d="m 438.538,434.604 0,-0.214 -0.214,0 0,0.214 0.214,0 z"
       style="fill:#cccccc;stroke:#000000;stroke-opacity:1"
       inkscape:connector-curvature="0" />
    <path
       id="path3312"
       d="m 438.965,434.817 0,-0.213 -0.213,0 0,0.213 0.213,0 z"
       style="fill:#cccccc;stroke:#000000;stroke-opacity:1"
       inkscape:connector-curvature="0" />
  </g>
  <g
     id="g3314" />
  <path
     id="path4279"
     title="exp(-pow(x,2)/2)/sqrt(2 * pi)"
     d="m 36.569493,545.12281 522.664667,0 m -522.664667,-0.0938 c 24.888794,-0.14286 49.777593,0.50366 74.666377,-4.62501 24.8888,-5.12867 49.77759,-17.62162 74.66639,-59.59596 24.88879,-41.97434 49.77759,-121.40228 74.66639,-173.12448 24.88877,-51.72221 49.77757,-51.65263 74.66637,0 24.88879,51.65262 49.77759,131.09582 74.66638,173.12448 24.88878,42.02858 49.77758,54.4526 74.66637,59.59596 24.8888,5.14344 49.7776,4.48182 74.66639,4.62501"
     style="fill:url(#pattern5888);fill-opacity:1;stroke:#000000;stroke-width:4;stroke-miterlimit:4;stroke-opacity:1;stroke-dasharray:none"
     inkscape:connector-curvature="0"
     sodipodi:nodetypes="cccssssssc" />
  <path
     inkscape:connector-curvature="0"
     id="path3024-0"
     d="m 439.43232,484.9926 c 1.118,1.358 7.924,3.294 10.653,5.252 0.124,0.09 4.812,2.918 4.961,2.992 1.643,0.82 3.292,1.815 4.873,2.733 4.576,2.658 20.516,5.275 26.188,5.275 l 3.458,0 c 6.989,0 9.107,-2.29 14.834,-2.798 1.128,-1.125 7.754,-2.726 9.696,-3.097 1.066,-0.203 7.344,-3.185 8.885,-3.908 2.909,-1.366 6.392,-1.831 9.338,-3.455 2.958,-1.632 5.383,-3.084 8.52,-4.273 0.687,-2.003 2.638,-3.146 4.736,-3.217 6.959,-8.671 11.626,-23.474 13.821,-34.241 2.811,-13.79 0.499,-28.749 -4.099,-41.876 -7.797,-22.261 -26.254,-38.512 -46.332,-49.791 -24.814,-13.939 -51.746,-17.11 -79.713,-14.639 -11.11,0.982 -28.869,4.395 -38.808,9.251 -4.92,2.404 -10.651,5.946 -15.392,8.81 -2.499,1.509 -5.071,3.016 -7.55,4.552 -2.558,1.585 -6.948,2.943 -4.131,5.897 0,3.999 -0.783,3.439 3.827,2.403 2.554,-0.575 4.965,-0.943 7.524,-1.424 5.489,-1.033 11.08,-1.325 16.653,-1.325 l 3.804,0 c 30.644,0 66.629,15.556 85.001,40.508 9.417,12.788 1.513,35.918 -5.961,48.227 -9.279,15.283 -19.148,20.771 -34.786,28.144 z"
     style="fill:#ffffff;fill-opacity:1;stroke:#000000;stroke-width:1.60000002;stroke-miterlimit:4;stroke-opacity:1;stroke-dasharray:none" />
  <path
     inkscape:connector-curvature="0"
     id="path3020"
     d="m 191.99623,467.82287 -0.021,-1.325 c -4.98,-0.388 -10.674,-0.424 -15.401,-1.232 -5.838,-1 -9.842,-0.39 -15.319,-0.99 l 9.967,-0.281 c -2.32,-1.214 -25.605,-0.242 -27.159,1.492 -5.29601,1.31 -14.31601,1.659 -19.29401,3.219 -2.719,0.852 -16.395,4.05 -17.48,4.994 l -3.21869,0.174 0.5033,0.738 -7.1745,2.13 0.7043,0.693 -4.4718,0.996 -12.8276,4.657 -0.1778,-0.37 0.0709,0.576 -5.7417,2.213 -0.1908,-0.366 0.0364,0.605 -2.329,0.465 0.4019,1.412 -3.1559,0.949 0.507,1.256 c -3.8815,4.484 -2.7061,7.833 -5.2808,10.422 l 0.2909,1.267 c -2.0268,-0.06 -8.875,-6.731 -9.1142,-9.489 -6.552,-10.299 35.5091,-23.742 42.0458,-25.723 18.71329,-5.671 37.75729,-11.623 57.52629,-11.623 l 12.101,0 0.044,-0.397 26.117,2.867 -0.123,0.939 1.276,-0.296 12.792,2.42 c 1.015,0.469 0.473,0.346 1.728,0.346 l 0.346,0 0.692,0 0.691,0.346 3.457,1.037 1.383,0.346 4.41701,0.731 0.424,0.652 1.383,0.346 5.186,1.383 2.074,0 0.692,0.346 c 5.48701,2.487 13.66801,4.187 19.91601,6.707 6.133,2.474 12.58,5.244 18.554,8.068 11.967,5.657 24.31,11.246 36.50499,16.397 25.163,10.628 53.643,19.672 80.238,25.90801 33.957,7.961 58.946,9.639 92.92501,-0.126 28.669,-8.23901 46.31,-17.17101 66.483,-39.31801 l -0.047,-1.011 -6.521,4.469 -6.456,4.029 0.131,0.552 -12.691,6.138 c -3.113,2.132 -18.014,5.859 -22.211,6.486 -10.271,1.535 -14.968,1.248 -24.95101,-1.157 -6.589,-1.588 -13.505,-5.661 -19.565,-8.787 -3.245,-1.673 -14.459,-9.03 -16.25,-11.411 -8.295,-2.621 -50.239,-37.268 -59.967,-45.146 -9.811,-7.945 -20.097,-14.883 -30.231,-22.324 -4.852,-3.562 -10.641,-7.344 -15.838,-10.439 -2.657,-1.583 -5.669,-3.291 -8.239,-4.901 -2.498,-1.564 0.028,-2.027 -3.846,-2.723 -1.763,-0.318 -3.108,-1.04 -3.925,-2.645 l -0.951,-0.043 -0.777,-0.994 -1.384,0 -3.457,-2.421 -3.112,-1.037 -3.80299,-3.112 -2.766,-0.692 -0.691,0 -3.803,-2.421 -2.056,-0.435 -0.71,-0.256 -3.803,-2.42101 -2.056,-0.435 -0.71,-0.256 c -19.743,-8.44 -38.107,-15.272 -58.44601,-22.115 -23.604,-7.942 -42.709,-10.102 -67.179,-13.035 -12.419,-1.488 -66.02269,-6.237 -74.70159,-1.995 -14.91721,7.292 -25.18611,34.546 -30.77491,49.44501 -7.953699,21.2 -13.342499,45.326 -11.330099,68.024 2.1046,23.745 9.301999,40.02 33.957099,45.57 19.2765,4.339 54.29049,4.502 73.3565,-0.651 9.444,-2.553 21.472,-4.31 27.106,-13.002 4.96,-7.653 10.577,-17.297 15.7,-24.409 z"
     style="fill:#ffffff;fill-opacity:1;stroke:#000000;stroke-width:1.60000002;stroke-miterlimit:4;stroke-opacity:1;stroke-dasharray:none"
     sodipodi:nodetypes="cccccccccccccccccccccccccccsccccccsccccccccccccsccsccccccccccccccccccccccccccccccccccccccc" />
  <g
     id="g6270"
     transform="translate(189.57667,-375.60985)">
    <path
       transform="matrix(0.80000003,0,0,0.80000003,0,-3.6104905e-5)"
       inkscape:connector-curvature="0"
       id="path6259"
       d="m -168.31573,1070.08 76.406483,-22.1468 44.293613,-7.7514 56.4743566,12.1807 73.0844614,21.0395 74.191806,32.1129 73.08446,23.2541"
       style="fill:none;stroke:none" />
    <text
       transform="translate(1.2293582,-14.743493)"
       sodipodi:linespacing="125%"
       id="text6261"
       style="font-size:80px;font-style:normal;font-variant:normal;font-weight:normal;font-stretch:normal;text-align:start;line-height:125%;letter-spacing:0px;word-spacing:0px;writing-mode:lr-tb;text-anchor:start;fill:#000000;fill-opacity:1;stroke:none;font-family:Sans;-inkscape-font-specification:Sans"
       xml:space="preserve"><textPath
         id="textPath6265"
         xlink:href="#path6259"><tspan
   style="font-size:80px;font-style:normal;font-variant:normal;font-weight:normal;font-stretch:normal;text-align:start;line-height:125%;writing-mode:lr-tb;text-anchor:start;font-family:Sans;-inkscape-font-specification:Sans"
   id="tspan6263">CAMECC</tspan></textPath></text>
  </g>
</svg>
